<?xml version="1.0" standalone="no"?>
<!DOCTYPE svg PUBLIC "-//W3C//DTD SVG 20010904//EN"
 "http://www.w3.org/TR/2001/REC-SVG-20010904/DTD/svg10.dtd">
<svg version="1.0" xmlns="http://www.w3.org/2000/svg"
 width="700.000000pt" height="700.000000pt" viewBox="0 0 700.000000 700.000000"
 preserveAspectRatio="xMidYMid meet">
<metadata>
Created by potrace 1.11, written by Peter Selinger 2001-2013
</metadata>
<g transform="translate(0.000000,700.000000) scale(0.100000,-0.100000)"
fill="#000000" stroke="none">
<path d="M4490 5045 c-8 -2 -49 -9 -90 -15 -340 -55 -632 -270 -734 -542 -76
-202 -76 -475 0 -677 70 -185 221 -347 434 -464 84 -46 124 -62 430 -167 140
-48 277 -97 303 -109 132 -57 184 -126 174 -232 -12 -137 -113 -204 -327 -216
-236 -13 -424 63 -606 246 l-78 78 -286 -214 c-157 -118 -285 -220 -285 -228
0 -23 94 -124 190 -204 310 -256 651 -362 1115 -348 389 12 642 100 827 289
86 87 109 119 159 224 69 143 88 238 88 434 0 196 -12 256 -84 405 -77 160
-197 275 -400 382 -110 58 -196 92 -490 191 -315 107 -329 113 -376 154 -65
57 -82 142 -45 224 39 86 126 124 286 124 173 0 320 -52 452 -159 l62 -50 226
235 c124 130 225 242 225 249 0 7 -29 40 -65 73 -230 215 -550 323 -950 321
-77 -1 -147 -3 -155 -4z"/>
<path d="M1190 3505 l0 -1515 1045 0 1045 0 0 340 0 340 -640 0 -640 0 -2
1173 -3 1172 -402 3 -403 2 0 -1515z"/>
</g>
</svg>
